<svg width="35" height="35" viewBox="0 0 35 35" fill="none" xmlns="http://www.w3.org/2000/svg">
<path d="M13.125 4.375H17.5V13.125H13.125C11.9647 13.125 10.8519 12.6641 10.0314 11.8436C9.21094 11.0231 8.75 9.91032 8.75 8.75C8.75 7.58968 9.21094 6.47688 10.0314 5.65641C10.8519 4.83594 11.9647 4.375 13.125 4.375Z" fill="#F4511E"/>
<path d="M21.875 13.125H17.5V4.375H21.875C23.0353 4.375 24.1481 4.83594 24.9686 5.65641C25.7891 6.47688 26.25 7.58968 26.25 8.75C26.25 9.91032 25.7891 11.0231 24.9686 11.8436C24.1481 12.6641 23.0353 13.125 21.875 13.125Z" fill="#FF8A65"/>
<path d="M17.5 17.5C17.5 19.9162 19.4588 21.875 21.875 21.875C24.2912 21.875 26.25 19.9162 26.25 17.5C26.25 15.0838 24.2912 13.125 21.875 13.125C19.4588 13.125 17.5 15.0838 17.5 17.5Z" fill="#29B6F6"/>
<path d="M13.125 13.125H17.5V21.875H13.125C11.9647 21.875 10.8519 21.4141 10.0314 20.5936C9.21094 19.7731 8.75 18.6603 8.75 17.5C8.75 16.3397 9.21094 15.2269 10.0314 14.4064C10.8519 13.5859 11.9647 13.125 13.125 13.125Z" fill="#7C4DFF"/>
<path d="M13.125 21.875H17.5V26.25C17.5 27.4103 17.0391 28.5231 16.2186 29.3436C15.3981 30.1641 14.2853 30.625 13.125 30.625C11.9647 30.625 10.8519 30.1641 10.0314 29.3436C9.21094 28.5231 8.75 27.4103 8.75 26.25C8.75 25.0897 9.21094 23.9769 10.0314 23.1564C10.8519 22.3359 11.9647 21.875 13.125 21.875Z" fill="#00E676"/>
</svg>
