<svg width="25" height="25" viewBox="0 0 25 25" fill="none" xmlns="http://www.w3.org/2000/svg">
<g clip-path="url(#clip0_1341_1172)">
<path d="M19.1406 0H5.85938C2.62333 0 0 2.62333 0 5.85938V19.1406C0 22.3767 2.62333 25 5.85938 25H19.1406C22.3767 25 25 22.3767 25 19.1406V5.85938C25 2.62333 22.3767 0 19.1406 0Z" fill="#E14E1D"/>
<path d="M4.6875 3.71094L5.52832 13.1438H16.3398L15.9771 17.1897L12.496 18.131L9.02148 17.1911L8.78916 14.5933H5.6582L6.10596 19.6012L12.4953 21.3758L18.8928 19.6012L19.7505 10.0249H8.38125L8.0958 6.83057H20.0331L20.3125 3.71094H4.6875Z" fill="white"/>
<path d="M12.5 3.71094H4.6875L5.52832 13.1438H12.5V10.0249H8.38125L8.0958 6.83057H12.5V3.71094ZM12.5 18.1296L12.496 18.131L9.02148 17.1911L8.78916 14.5933H5.6582L6.10596 19.6012L12.4953 21.3758L12.5001 21.3744L12.5 18.1296Z" fill="#EBEBEB"/>
</g>
<defs>
<clipPath id="clip0_1341_1172">
<rect width="25" height="25" fill="white"/>
</clipPath>
</defs>
</svg>
