<svg width="30" height="30" viewBox="0 0 30 30" fill="none" xmlns="http://www.w3.org/2000/svg">
<g clip-path="url(#clip0_1341_1149)">
<path d="M5.32031 0.375H24.7031C27.6328 0.375 30.0234 2.74219 30.0234 5.69531V24.3281C30.0234 27.2578 27.6562 29.6484 24.7031 29.6484H5.32031C2.36719 29.625 0 27.2578 0 24.3047V5.69531C0 2.74219 2.36719 0.375 5.32031 0.375Z" fill="#330000"/>
<path d="M14.5079 17.8828H9.84386L8.90636 20.8125C8.88292 20.9297 8.78917 21 8.67198 20.9766H6.32823C6.18761 20.9766 6.16417 20.9062 6.18761 20.7422L10.2189 9.16406C10.2657 9.04687 10.2892 8.90625 10.336 8.74219C10.3829 8.48437 10.4064 8.20312 10.4064 7.92187C10.3829 7.85156 10.4532 7.80469 10.5001 7.78125H13.7345C13.8282 7.78125 13.8751 7.82812 13.8985 7.875L18.4689 20.7422C18.5157 20.8828 18.4689 20.9531 18.3517 20.9531H15.7267C15.6329 20.9766 15.5626 20.9062 15.5157 20.8125L14.5079 17.8828ZM10.5704 15.3281H13.7345C13.6642 15.0703 13.5704 14.7422 13.4532 14.4375C13.336 14.1094 13.2189 13.7344 13.1251 13.3594C13.0079 12.9609 12.8907 12.5859 12.7735 12.2109C12.6564 11.8125 12.5392 11.4609 12.4454 11.1094C12.3517 10.7578 12.2579 10.4297 12.1642 10.125H12.1407C12.0235 10.6641 11.8829 11.2031 11.7189 11.7422C11.5314 12.3516 11.3439 12.9609 11.1329 13.5937C10.9454 14.2266 10.7579 14.8125 10.5704 15.3281ZM21.2579 10.0078C20.836 10.0313 20.4376 9.86719 20.1564 9.5625C19.8751 9.25781 19.711 8.83594 19.7345 8.41406C19.711 7.99219 19.8751 7.59375 20.1798 7.3125C20.4845 7.03125 20.8829 6.86719 21.2814 6.86719C21.7735 6.86719 22.1485 7.00781 22.4298 7.3125C22.711 7.61719 22.8517 8.01563 22.8517 8.41406C22.8751 8.83594 22.711 9.25781 22.4064 9.5625C22.1017 9.86719 21.6798 10.0313 21.2579 10.0078ZM19.8517 20.8594V11.2266C19.8517 11.1094 19.8985 11.0625 20.0157 11.0625H22.5001C22.6173 11.0625 22.6642 11.1328 22.6642 11.2266V20.8594C22.6642 21 22.6173 21.0703 22.5001 21.0703H20.0392C19.922 21.0469 19.8517 20.9766 19.8517 20.8594Z" fill="#FF9A00"/>
</g>
<defs>
<clipPath id="clip0_1341_1149">
<rect width="30" height="30" fill="white"/>
</clipPath>
</defs>
</svg>
