<svg width="30" height="30" viewBox="0 0 30 30" fill="none" xmlns="http://www.w3.org/2000/svg">
<path d="M3.75 3.75V26.25H26.25V3.75H3.75ZM15 15H16.875V22.5C16.8735 22.9968 16.6755 23.4729 16.3242 23.8242C15.9729 24.1755 15.4968 24.3735 15 24.375H13.125C12.6282 24.3735 12.1521 24.1755 11.8008 23.8242C11.4495 23.4729 11.2515 22.9968 11.25 22.5V20.625H13.125V22.5H15V15ZM20.625 15H24.375V16.875H20.625V18.75H22.5C22.9968 18.7515 23.4729 18.9495 23.8242 19.3008C24.1755 19.6521 24.3735 20.1282 24.375 20.625V22.5C24.3735 22.9968 24.1755 23.4729 23.8242 23.8242C23.4729 24.1755 22.9968 24.3735 22.5 24.375H18.75V22.5H22.5V20.625H20.625C20.1282 20.6235 19.6521 20.4255 19.3008 20.0742C18.9495 19.7229 18.7515 19.2468 18.75 18.75V16.875C18.7515 16.3782 18.9495 15.9021 19.3008 15.5508C19.6521 15.1995 20.1282 15.0015 20.625 15Z" fill="#FFCA28"/>
</svg>
