<svg width="30" height="30" viewBox="0 0 30 30" fill="none" xmlns="http://www.w3.org/2000/svg">
<path d="M25 22.4993C25 25.2618 20.5225 27.4993 15 27.4993C9.4775 27.4993 5 25.2618 5 22.4993V17.4668C5.6275 18.238 6.51875 18.878 7.51 19.373C9.475 20.3555 12.125 20.9368 15 20.9368C17.875 20.9368 20.525 20.3555 22.49 19.3743C23.4812 18.878 24.3725 18.2368 25 17.4668V22.4993Z" fill="black"/>
<path d="M15 13.4368C17.875 13.4368 20.525 12.8555 22.49 11.8743C23.4812 11.378 24.3725 10.7368 25 9.9668V14.9993C25 15.6243 22.7675 16.988 21.6512 17.6968C19.9975 18.523 17.6475 19.0618 15 19.0618C12.3525 19.0618 10.0025 18.5243 8.34875 17.6968C6.875 16.9593 5 15.6243 5 14.9993V9.9668C5.6275 10.738 6.51875 11.378 7.51 11.873C9.475 12.8555 12.125 13.4368 15 13.4368Z" fill="black"/>
<path d="M21.6507 10.1975C19.997 11.0237 17.647 11.5625 14.9995 11.5625C12.352 11.5625 10.002 11.025 8.34825 10.1975C7.7045 9.945 6.257 9.14375 5.252 7.84875C5.16648 7.74035 5.10434 7.61542 5.06949 7.48182C5.03464 7.34822 5.02783 7.20886 5.04949 7.0725C5.07824 6.8875 5.11825 6.69625 5.1695 6.5775C6.0345 4.2575 10.107 2.5 14.9995 2.5C19.892 2.5 23.9645 4.2575 24.8295 6.5775C24.8807 6.69625 24.9207 6.8875 24.9495 7.0725C24.9712 7.20886 24.9644 7.34822 24.9295 7.48182C24.8946 7.61542 24.8325 7.74035 24.747 7.84875C23.742 9.14375 22.2945 9.945 21.6507 10.1975Z" fill="black"/>
</svg>
