<svg width="30" height="30" viewBox="0 0 30 30" fill="none" xmlns="http://www.w3.org/2000/svg">
<path d="M14.3944 2.65416L4.35656 8.30729C4.17326 8.40823 4.02034 8.55642 3.91367 8.73644C3.80701 8.91647 3.75049 9.12178 3.75 9.33104V20.6532C3.75088 20.8627 3.80742 21.0681 3.91384 21.2485C4.02027 21.4289 4.17273 21.5777 4.35562 21.6798L14.3953 27.3413C14.5805 27.4455 14.7894 27.5002 15.0019 27.5002C15.2143 27.5002 15.4232 27.4455 15.6084 27.3413L25.6444 21.6807C25.8274 21.5786 25.98 21.4296 26.0864 21.249C26.1928 21.0685 26.2493 20.8628 26.25 20.6532V9.3376C26.2497 9.12818 26.1932 8.92268 26.0866 8.74247C25.9799 8.56226 25.8269 8.41393 25.6434 8.31291L15.6094 2.65885C15.4242 2.55471 15.2153 2.5 15.0028 2.5C14.7903 2.5 14.5814 2.55471 14.3962 2.65885L14.3944 2.65416Z" fill="#388E3C"/>
<path d="M4.03516 21.3593C4.13308 21.4841 4.25441 21.5885 4.39234 21.6668L13.0033 26.523L14.4377 27.3312C14.6497 27.4518 14.893 27.506 15.1361 27.4868C15.2166 27.4798 15.2963 27.4654 15.3742 27.4437L25.9614 8.51367C25.8806 8.42758 25.7878 8.35369 25.6858 8.2943L19.1055 4.58742L15.632 2.63555C15.5335 2.58058 15.4278 2.53956 15.318 2.51367L4.03516 21.3593Z" fill="#4CAF50"/>
<path d="M25.9614 21.3593C25.8638 21.484 25.7428 21.5884 25.6052 21.6668L16.9942 26.523L15.5598 27.3312C15.3478 27.4518 15.1045 27.506 14.8614 27.4868C14.7809 27.4798 14.7012 27.4654 14.6233 27.4437L4.03516 8.5118C4.11621 8.42564 4.20937 8.35174 4.31172 8.29242L10.8911 4.58742L14.3645 2.63555C14.4631 2.58058 14.5688 2.53956 14.6786 2.51367L25.9614 21.3593Z" fill="#66BB6A"/>
</svg>
