<svg width="39" height="39" viewBox="0 0 39 39" fill="none" xmlns="http://www.w3.org/2000/svg">
<path d="M34.125 12.1875C34.125 10.8946 33.6114 9.65459 32.6971 8.74035C31.7829 7.82611 30.5429 7.3125 29.25 7.3125H21.9375V14.625C21.9375 16.5644 21.1671 18.4244 19.7957 19.7957C18.4244 21.1671 16.5644 21.9375 14.625 21.9375H12.1875V24.375H14.625V31.6875H19.5V24.375H29.25V31.6875H34.125V19.5H36.5625V14.625C36.5625 13.9785 36.3057 13.3585 35.8486 12.9014C35.3915 12.4443 34.7715 12.1875 34.125 12.1875Z" fill="#0288D1"/>
<path d="M14.625 4.875H9.75V7.3125C7.8106 7.3125 5.95064 8.08292 4.57928 9.45428C3.20792 10.8256 2.4375 12.6856 2.4375 14.625V21.9375C2.4375 22.584 2.69431 23.204 3.15143 23.6611C3.60855 24.1182 4.22853 24.375 4.875 24.375V26.8125H3.04688C2.88526 26.8125 2.73026 26.8767 2.61598 26.991C2.5017 27.1053 2.4375 27.2603 2.4375 27.4219V31.0781C2.4375 31.2397 2.5017 31.3947 2.61598 31.509C2.73026 31.6233 2.88526 31.6875 3.04688 31.6875H7.3125C7.95897 31.6875 8.57895 31.4307 9.03607 30.9736C9.49319 30.5165 9.75 29.8965 9.75 29.25V19.5H14.625C15.9179 19.5 17.1579 18.9864 18.0721 18.0721C18.9864 17.1579 19.5 15.9179 19.5 14.625V9.75C19.5 8.45707 18.9864 7.21709 18.0721 6.30285C17.1579 5.38861 15.9179 4.875 14.625 4.875ZM7.3125 17.0625H4.875V14.625H7.3125V17.0625Z" fill="#0288D1"/>
</svg>
