<svg width="30" height="30" viewBox="0 0 30 30" fill="none" xmlns="http://www.w3.org/2000/svg">
<path d="M12.325 2.5C11.3769 2.5 10.4675 2.87665 9.79709 3.54709C9.12665 4.21754 8.75 5.12685 8.75 6.075V8.175H14.1125C14.6 8.175 15 8.8875 15 9.375H6.075C5.12685 9.375 4.21754 9.75165 3.54709 10.4221C2.87665 11.0925 2.5 12.0019 2.5 12.95V17.6763C2.5 18.6244 2.87665 19.5337 3.54709 20.2042C4.21754 20.8746 5.12685 21.2513 6.075 21.2513H7.55V17.9013C7.54835 17.4324 7.63929 16.9678 7.81758 16.5341C7.99588 16.1004 8.25803 15.7062 8.589 15.3741C8.91998 15.042 9.31326 14.7784 9.7463 14.5986C10.1793 14.4188 10.6436 14.3262 11.1125 14.3263H17.675C19.65 14.3263 21.25 12.7375 21.25 10.7625V6.075C21.25 5.12685 20.8733 4.21754 20.2029 3.54709C19.5325 2.87665 18.6231 2.5 17.675 2.5H12.325ZM11.425 4.5125C11.925 4.5125 12.325 4.6625 12.325 5.4C12.325 6.1375 11.925 6.51375 11.425 6.51375C10.9375 6.51375 10.5375 6.13875 10.5375 5.40125C10.5375 4.66375 10.9375 4.5125 11.425 4.5125Z" fill="#0288D1"/>
<path d="M22.4487 8.75V12.1C22.4502 12.5688 22.3592 13.0332 22.1808 13.4668C22.0024 13.9003 21.7403 14.2943 21.4093 14.6263C21.0783 14.9583 20.6851 15.2218 20.2522 15.4015C19.8192 15.5812 19.355 15.6738 18.8863 15.6737H12.325C11.8561 15.6721 11.3915 15.763 10.9579 15.9413C10.5242 16.1196 10.13 16.3818 9.79785 16.7128C9.46571 17.0437 9.20218 17.437 9.02237 17.87C8.84256 18.3031 8.75 18.7674 8.75 19.2362V23.9237C8.75 24.8719 9.12665 25.7812 9.79709 26.4517C10.4675 27.1221 11.3769 27.4987 12.325 27.4987H17.675C18.6229 27.4987 19.5321 27.1223 20.2025 26.4521C20.8729 25.7819 21.2497 24.8729 21.25 23.925V21.825H15.8862C15.3987 21.825 15 21.1125 15 20.625H23.925C24.8731 20.625 25.7825 20.2483 26.4529 19.5779C27.1233 18.9075 27.5 17.9981 27.5 17.05V12.325C27.5 11.3769 27.1233 10.4675 26.4529 9.79709C25.7825 9.12665 24.8731 8.75 23.925 8.75H22.4487ZM10.4 14.3912L10.395 14.3962L10.4425 14.3912H10.4ZM18.575 23.4862C19.0625 23.4862 19.4625 23.8612 19.4625 24.5987C19.4625 24.7153 19.4395 24.8307 19.3949 24.9384C19.3503 25.0461 19.285 25.1439 19.2026 25.2263C19.1201 25.3087 19.0223 25.3741 18.9146 25.4187C18.807 25.4633 18.6915 25.4862 18.575 25.4862C18.075 25.4862 17.675 25.3363 17.675 24.5987C17.675 23.8612 18.075 23.4862 18.575 23.4862Z" fill="#FDD835"/>
</svg>
