<svg width="30" height="30" viewBox="0 0 30 30" fill="none" xmlns="http://www.w3.org/2000/svg">
<path d="M15 11.25C21.9788 11.25 26.25 13.6781 26.25 15C26.25 16.3219 21.9788 18.75 15 18.75C8.02125 18.75 3.75 16.3219 3.75 15C3.75 13.6781 8.02125 11.25 15 11.25ZM15 9.375C7.75125 9.375 1.875 11.8931 1.875 15C1.875 18.1069 7.75125 20.625 15 20.625C22.2488 20.625 28.125 18.1069 28.125 15C28.125 11.8931 22.2488 9.375 15 9.375Z" fill="#00BCD4"/>
<path d="M15 13.125C14.6292 13.125 14.2666 13.235 13.9583 13.441C13.65 13.647 13.4096 13.9399 13.2677 14.2825C13.1258 14.6251 13.0887 15.0021 13.161 15.3658C13.2334 15.7295 13.412 16.0636 13.6742 16.3258C13.9364 16.588 14.2705 16.7666 14.6342 16.839C14.9979 16.9113 15.3749 16.8742 15.7175 16.7323C16.0601 16.5904 16.353 16.35 16.559 16.0417C16.765 15.7334 16.875 15.3708 16.875 15C16.875 14.5027 16.6775 14.0258 16.3258 13.6742C15.9742 13.3225 15.4973 13.125 15 13.125Z" fill="#00BCD4"/>
<path d="M9.80404 5.16211C11.695 5.16211 15.37 8.14055 18.2472 13.1243C21.7365 19.1684 21.7694 24.0809 20.6247 24.7418C20.4926 24.8103 20.3448 24.8426 20.1962 24.8355C18.3053 24.8355 14.6294 21.858 11.7522 16.8743C8.26279 10.8302 8.22998 5.91773 9.37467 5.2568C9.507 5.18817 9.65515 5.15488 9.80404 5.16211ZM9.80311 3.28805C9.32532 3.2794 8.85385 3.39816 8.43717 3.63211C5.74654 5.18555 6.50404 11.5343 10.1284 17.8118C13.2072 23.1462 17.3659 26.7115 20.1972 26.7115C20.6748 26.7194 21.1459 26.6 21.5622 26.3655C24.2528 24.813 23.4953 18.4643 19.8709 12.1868C16.7922 6.85242 12.6334 3.28711 9.80217 3.28711L9.80311 3.28805Z" fill="#00BCD4"/>
<path d="M20.196 5.16249C20.3446 5.15543 20.4924 5.18777 20.6245 5.25624C21.7691 5.91812 21.7363 10.8306 18.247 16.8747C15.3688 21.8584 11.6938 24.8369 9.80289 24.8369C9.65431 24.8439 9.50651 24.8116 9.37446 24.7431C8.22977 24.0803 8.26258 19.1678 11.752 13.1247C14.6301 8.14093 18.3051 5.16249 20.196 5.16249ZM20.196 3.28749C17.3648 3.28749 13.207 6.85374 10.1273 12.1872C6.50477 18.4647 5.74633 24.8134 8.43696 26.3659C8.85346 26.6005 9.32494 26.7199 9.80289 26.7119C12.6341 26.7119 16.792 23.1456 19.8716 17.8122C23.4941 11.5347 24.2526 5.18593 21.562 3.63343C21.1455 3.39883 20.674 3.27942 20.196 3.28749Z" fill="#00BCD4"/>
</svg>
