<svg width="24" height="24" viewBox="0 0 24 24" fill="none" xmlns="http://www.w3.org/2000/svg">
<path d="M20 17.9996C20 20.2096 16.418 21.9996 12 21.9996C7.582 21.9996 4 20.2096 4 17.9996V13.9736C4.502 14.5906 5.215 15.1026 6.008 15.4986C7.58 16.2846 9.7 16.7496 12 16.7496C14.3 16.7496 16.42 16.2846 17.992 15.4996C18.785 15.1026 19.498 14.5896 20 13.9736V17.9996Z" fill="#00F5FF"/>
<path d="M12 10.7496C14.3 10.7496 16.42 10.2846 17.992 9.49963C18.785 9.10263 19.498 8.58963 20 7.97363V11.9996C20 12.4996 18.214 13.5906 17.321 14.1576C15.998 14.8186 14.118 15.2496 12 15.2496C9.882 15.2496 8.002 14.8196 6.679 14.1576C5.5 13.5676 4 12.4996 4 11.9996V7.97363C4.502 8.59063 5.215 9.10263 6.008 9.49863C7.58 10.2846 9.7 10.7496 12 10.7496Z" fill="#00F5FF"/>
<path d="M17.3202 8.158C15.9972 8.819 14.1172 9.25 11.9992 9.25C9.88121 9.25 8.00121 8.82 6.67821 8.158C6.16321 7.956 5.00521 7.315 4.20121 6.279C4.1328 6.19228 4.08308 6.09233 4.0552 5.98546C4.02732 5.87858 4.02187 5.76709 4.03921 5.658C4.06221 5.51 4.09421 5.357 4.13521 5.262C4.82721 3.406 8.08521 2 11.9992 2C15.9132 2 19.1712 3.406 19.8632 5.262C19.9042 5.357 19.9362 5.51 19.9592 5.658C19.9765 5.76709 19.9711 5.87858 19.9432 5.98546C19.9153 6.09233 19.8656 6.19228 19.7972 6.279C18.9932 7.315 17.8352 7.956 17.3202 8.158Z" fill="#00F5FF"/>
</svg>
